<svg
  width="28"
  height="28"
  viewBox="0 0 28 28"
  fill="none"
  xmlns="http://www.w3.org/2000/svg"
>
  <path
    d="M14.0001 6.88464C15.3534 6.88464 16.4501 7.9813 16.4501 9.33463C16.4501 10.688 15.3534 11.7846 14.0001 11.7846C12.6467 11.7846 11.5501 10.688 11.5501 9.33463C11.5501 7.9813 12.6467 6.88464 14.0001 6.88464ZM14.0001 17.3846C17.4651 17.3846 21.1167 19.088 21.1167 19.8346V21.118H6.88341V19.8346C6.88341 19.088 10.5351 17.3846 14.0001 17.3846ZM14.0001 4.66797C11.4217 4.66797 9.33341 6.7563 9.33341 9.33463C9.33341 11.913 11.4217 14.0013 14.0001 14.0013C16.5784 14.0013 18.6667 11.913 18.6667 9.33463C18.6667 6.7563 16.5784 4.66797 14.0001 4.66797ZM14.0001 15.168C10.8851 15.168 4.66675 16.7313 4.66675 19.8346V23.3346H23.3334V19.8346C23.3334 16.7313 17.1151 15.168 14.0001 15.168Z"
  />
</svg>
